<svg id="Capa_1" data-name="Capa 1" xmlns="http://www.w3.org/2000/svg" viewBox="0 0 512 420"><defs><style>.cls-1{fill:#fff;}</style></defs><title>barras</title><path class="cls-1" d="M402.8,288h12.4c6.4,0,12.8-6.4,12.8-12.8V44.8c0-6.4-6.4-12.8-12.8-12.8H402.8c-6.4,0-12.8,6.4-12.8,12.8V275.2C390,281.6,396.4,288,402.8,288Zm-192,0h12.4c6.4,0,12.8-6.4,12.8-12.8V76.8c0-6.4-6.4-12.8-12.8-12.8H210.8c-6.4,0-12.8,6.4-12.8,12.8V275.2C198,281.6,204.4,288,210.8,288Zm96,0h12.4c6.4,0,12.8-6.4,12.8-12.8V140.8c0-6.4-6.4-12.8-12.8-12.8H306.8c-6.4,0-12.8,6.4-12.8,12.8V275.2C294,281.6,300.4,288,306.8,288ZM496,346H38V16A16,16,0,0,0,22,0H16A16,16,0,0,0,0,16V362c0,13.5,13.13,22,27,22H496a16,16,0,0,0,16-16v-6A16,16,0,0,0,496,346ZM114.8,288h12.4c6.4,0,12.8-6.4,12.8-12.8V204.8c0-6.4-6.4-12.8-12.8-12.8H114.8c-6.4,0-12.8,6.4-12.8,12.8v70.4C102,281.6,108.4,288,114.8,288Z"/></svg>