<?xml version="1.0" encoding="utf-8"?>
<!-- Generator: Adobe Illustrator 21.0.0, SVG Export Plug-In . SVG Version: 6.00 Build 0)  -->
<svg version="1.1" id="Capa_1" xmlns:svgjs="http://svgjs.com/svgjs"
	 xmlns="http://www.w3.org/2000/svg" xmlns:xlink="http://www.w3.org/1999/xlink" x="0px" y="0px" viewBox="0 0 1470 628"
	 style="enable-background:new 0 0 1470 628;" xml:space="preserve">
<style type="text/css">
	.st0{fill:#FFFFFF;}
</style>
<g>
	<path class="st0" d="M301.7,272.5l-33.5,17.4c-9.5-19.7-25.4-20.1-27.7-20.1c-22.3,0-33.5,14.7-33.5,44.2
		c0,23.8,9.3,44.2,33.5,44.2c14.6,0,24.8-7.1,30.8-21.4l30.8,15.6c-6.2,11.6-25.9,39.3-65.6,39.3c-22.8,0-74.6-10.4-74.6-77.7
		c0-59.2,43.3-77.7,73.2-77.7C266.2,236.3,288.3,248.4,301.7,272.5L301.7,272.5z M445.9,272.5l-33,17.4
		c-9.6-19.9-25.9-20.1-28.1-20.1c-22.3,0-33.5,14.7-33.5,44.2c0,23.7,9.3,44.2,33.5,44.2c14.6,0,24.8-7.1,30.8-21.4l31.3,15.6
		c-2.1,3.8-21.6,39.3-65.6,39.3c-22.9,0-74.6-9.9-74.6-77.7c0-59.1,43.3-77.7,73.2-77.7C410.8,236.3,432.9,248.4,445.9,272.5
		L445.9,272.5z M303.5,64c-144,0-249.6,116-249.6,250c0,139.6,114.5,250,249.6,250c131,0,250.4-101.7,250.4-250
		C553.9,175,446.5,64,303.5,64L303.5,64z M304.4,518.4C190.9,518.4,99,424.7,99,314c0-106.3,86.1-204.9,205.4-204.9
		c113.4,0,204.5,90.2,204.5,204.9C508.8,436.7,408.4,518.4,304.4,518.4L304.4,518.4z"/>
	<path class="st0" d="M753.7,158v51.1h-14.3v60.7h-38.9v-60.7h-14.3V158c0-2.2,0.8-4.1,2.3-5.7c1.6-1.6,3.5-2.4,5.7-2.4h51.4
		c2.1,0,3.9,0.8,5.6,2.4C752.9,153.9,753.7,155.7,753.7,158z M702.6,125.8c0-11.7,5.8-17.6,17.4-17.6c11.6,0,17.4,5.9,17.4,17.6
		c0,11.6-5.8,17.4-17.4,17.4C708.4,143.2,702.6,137.4,702.6,125.8z M719.8,64C791.3,64,845,119.5,845,189c0,74.1-59.7,125-125.2,125
		C652.3,314,595,258.8,595,189C595,122,647.8,64,719.8,64z M720.2,86.5c-59.6,0-102.7,49.3-102.7,102.5c0,55.3,46,102.2,102.7,102.2
		c52,0,102.2-40.9,102.2-102.2C822.5,131.6,777,86.5,720.2,86.5L720.2,86.5z"/>
	<path class="st0" d="M991.8,64c70.5,0,125.2,54.4,125.2,125c0,74.2-59.7,125-125.2,125C924,314,867,258.2,867,189
		C867,122,919.8,64,991.8,64z M895.1,155.3c-3.7,10.3-5.6,21.5-5.6,33.7c0,55.9,46.4,102,102.7,102c61.7,0,89.3-51.3,90-52.5
		l-47.1-21c-3.9,18.7-20.8,26.7-34.4,27.9v19.2h-14.5v-19.3c-13.9-0.2-26.5-5.1-38-15l17.2-17.4c16,14.8,43.5,16,43.5-1.1
		c0-3.1-1.1-5.6-3.3-7.6C998.5,201.3,1004.8,204.3,895.1,155.3L895.1,155.3z M992.2,86.3c-19.4,0-56.7,4.4-85.9,46.9l47.8,21.4
		c5-15.8,20.4-21.6,32.2-22.3v-19.2h14.5v19.2c11.4,0.6,21.9,4.5,31.3,11.6l-16.3,16.7c-21.5-15.1-42.1-4-35.3,5.6
		c26.9,12.1,22.1,10,46.9,21l64.1,28.6c2.1-8.8,3.1-17.7,3.1-26.8c0-28.7-10-52.9-29.9-72.5C1044.8,96.4,1020.6,86.3,992.2,86.3
		L992.2,86.3z"/>
	<path class="st0" d="M1262.3,64c71.5,0,125.2,55.5,125.2,125c0,74.1-59.7,125-125.2,125c-67.5,0-124.8-55.2-124.8-125
		C1137.5,122,1190.3,64,1262.3,64z M1262.7,86.5c-59.6,0-102.7,49.3-102.7,102.5c0,55.3,46,102.2,102.7,102.2
		c52,0,102.2-40.9,102.2-102.2C1365,131.6,1319.4,86.5,1262.7,86.5L1262.7,86.5z M1206.9,171.4c6.6-42.3,40.6-48.2,54.9-48.2
		c50.3,0,64.3,41.6,64.3,67.6c0,32.1-20.7,67-65,67c-19.6,0-49.9-10.1-55.1-48.9h31.5c0.8,15.2,9.9,22.8,27.5,22.8
		c11.7,0,29.2-9.2,29.2-41.7c0-41.6-24.7-40.6-28.6-40.6c-16.7,0-26.1,7.4-28.1,22.1h9.2l-24.8,24.8l-24.7-24.8L1206.9,171.4
		L1206.9,171.4z"/>
	<g>
		<path class="st0" d="M686.7,513.3c3.1-0.9,5.5-2.5,7.1-4.6s2.4-4.9,2.4-8.1c0-3.1-0.7-5.8-2.2-8.2c-1.5-2.3-3.6-4-6.3-4.8
			s-7.5-1.3-14.2-1.3h-18.6v28.1H675C680.4,514.4,684.4,514,686.7,513.3z"/>
		<path class="st0" d="M1310.1,485c-1.2,6-2.9,11.9-5,17.8l-10.2,27.3h31.5l-9.7-25.8C1313.7,496.5,1311.5,490.1,1310.1,485z"/>
		<path class="st0" d="M690,526.9c-3.2-1-7.7-1.6-13.6-1.6h-21.5v32H678c4,0,6.8-0.1,8.4-0.4c2.8-0.5,5.2-1.4,7.1-2.5
			c1.9-1.2,3.5-2.9,4.7-5.2s1.8-4.9,1.8-7.8c0-3.5-0.9-6.5-2.7-9C695.6,529.7,693.1,527.9,690,526.9z"/>
		<path class="st0" d="M1429.5,0H40.5C18.1,0,0,18.1,0,40.5v387.1v159.9C0,609.9,18.1,628,40.5,628h1389c22.4,0,40.5-18.1,40.5-40.5
			V427.6V40.5C1470,18.1,1451.9,0,1429.5,0z M710,553.5c-1.8,3.7-4.1,6.6-6.8,8.7s-6.1,3.6-10.2,4.6c-4.1,1-9.1,1.6-15,1.6h-35.5
			v-93.1h34.9c7.1,0,12.8,0.9,17.1,2.8s7.7,4.8,10.1,8.7c2.4,3.9,3.6,8,3.6,12.3c0,4-1.1,7.7-3.2,11.2c-2.2,3.5-5.4,6.3-9.8,8.5
			c5.6,1.7,10,4.5,13,8.4c3,4,4.5,8.7,4.5,14.1C712.8,545.7,711.9,549.8,710,553.5z M768.3,528.9v39.4H756v-39.4l-35.9-53.6h15
			l18.3,28.1c3.4,5.2,6.5,10.5,9.5,15.7c2.8-4.9,6.2-10.3,10.2-16.4l18-27.4h14.3L768.3,528.9z M983.7,568.3h-12.6l-48.9-73.1v73.1
			h-11.8v-93.1H923l48.9,73.1v-73.1h11.8V568.3z M1069.2,561.9c-6.7,5.3-14.9,8-24.6,8c-10,0-18.2-2-24.5-6.1
			c-6.3-4.1-11.1-10-14.3-17.7s-4.9-16.1-4.9-24.9c0-9.7,1.9-18.1,5.6-25.4c3.7-7.2,9-12.7,15.8-16.4c6.8-3.7,14.4-5.6,22.6-5.6
			c9.3,0,17.1,2.4,23.5,7.1c6.3,4.7,10.8,11.4,13.3,20l-12.1,2.9c-2.2-6.8-5.3-11.7-9.4-14.8c-4.1-3.1-9.3-4.6-15.5-4.6
			c-7.2,0-13.1,1.7-17.9,5.1s-8.2,8-10.1,13.8c-1.9,5.8-2.9,11.7-2.9,17.9c0,7.9,1.2,14.8,3.5,20.7s5.9,10.3,10.8,13.2
			s10.1,4.4,15.8,4.4c6.9,0,12.7-2,17.5-6s8-9.9,9.7-17.7l12.3,3.1C1080.5,548.9,1075.9,556.6,1069.2,561.9z M1257.2,556
			c-2.8,4.4-6.9,7.8-12.2,10.2c-5.3,2.4-11.3,3.6-17.9,3.6c-8.4,0-15.5-1.2-21.2-3.7s-10.2-6.1-13.4-11.1
			c-3.2-4.9-4.9-10.5-5.1-16.7l11.6-1c0.5,4.7,1.8,8.5,3.8,11.5s5.1,5.4,9.4,7.2c4.2,1.8,9,2.8,14.3,2.8c4.7,0,8.8-0.7,12.4-2.1
			c3.6-1.4,6.3-3.3,8-5.7s2.6-5.1,2.6-8s-0.8-5.5-2.5-7.6c-1.7-2.2-4.5-4-8.4-5.5c-2.5-1-8-2.5-16.6-4.5c-8.5-2.1-14.5-4-18-5.8
			c-4.4-2.3-7.8-5.2-9.9-8.7s-3.3-7.3-3.3-11.6c0-4.7,1.3-9.1,4-13.2s6.6-7.2,11.7-9.3c5.1-2.1,10.8-3.2,17.1-3.2
			c6.9,0,13,1.1,18.2,3.3c5.3,2.2,9.3,5.5,12.2,9.8c2.8,4.3,4.4,9.2,4.6,14.7l-11.8,0.9c-0.6-5.9-2.8-10.3-6.4-13.3
			c-3.7-3-9.1-4.5-16.2-4.5c-7.4,0-12.9,1.4-16.3,4.1s-5.1,6-5.1,9.9c0,3.3,1.2,6.1,3.6,8.3c2.4,2.2,8.6,4.4,18.6,6.6
			c10,2.3,16.9,4.2,20.6,5.9c5.4,2.5,9.4,5.7,12,9.5s3.9,8.2,3.9,13.2C1261.4,547,1260,551.7,1257.2,556z M1341.1,568.3l-10.9-28.2
			h-38.9l-10.2,28.2H1268l35.7-93.1h13.3l38.1,93.1H1341.1z M1430,427.6H545.6C502.9,518.2,410.8,581,303.9,581
			s-199-62.8-241.7-153.4H40V40.5c0-0.3,0.2-0.5,0.5-0.5h1389c0.3,0,0.5,0.2,0.5,0.5V427.6z"/>
	</g>
</g>
</svg>
