<svg id="Capa_1" data-name="Capa 1" xmlns="http://www.w3.org/2000/svg" viewBox="0 0 512 484"><defs><style>.cls-1{fill:#fff;}</style></defs><title>encuesta</title><path class="cls-1" d="M477,0H35A35,35,0,0,0,0,35V413a35,35,0,0,0,35,35H477a35,35,0,0,0,35-35V35A35,35,0,0,0,477,0Zm-9,410H44a6,6,0,0,1-6-6V44a6,6,0,0,1,6-6H468a6,6,0,0,1,6,6V404A6,6,0,0,1,468,410Zm-52-98v14a12,12,0,0,1-12,12H204a12,12,0,0,1-12-12V312a12,12,0,0,1,12-12H404A12,12,0,0,1,416,312Zm0-96v14a12,12,0,0,1-12,12H204a12,12,0,0,1-12-12V216a12,12,0,0,1,12-12H404A12,12,0,0,1,416,216Zm0-96v14a12,12,0,0,1-12,12H204a12,12,0,0,1-12-12V120a12,12,0,0,1,12-12H404A12,12,0,0,1,416,120Zm-258,7a30,30,0,1,1-30-30A30,30,0,0,1,158,127Zm0,96a30,30,0,1,1-30-30A30,30,0,0,1,158,223Zm0,96a30,30,0,1,1-30-30A30,30,0,0,1,158,319Z"/></svg>