<?xml version="1.0" encoding="utf-8"?>
<!-- Generator: Adobe Illustrator 16.0.0, SVG Export Plug-In . SVG Version: 6.00 Build 0)  -->
<!DOCTYPE svg PUBLIC "-//W3C//DTD SVG 1.1//EN" "http://www.w3.org/Graphics/SVG/1.1/DTD/svg11.dtd">
<svg version="1.1" id="Layer_1" xmlns="http://www.w3.org/2000/svg" xmlns:xlink="http://www.w3.org/1999/xlink" x="0px" y="0px"
	 width="75px" height="75px" viewBox="0 0 75 75" enable-background="new 0 0 75 75" xml:space="preserve">
<line fill="#FFFFFF" stroke="#000000" stroke-miterlimit="10" x1="10.983" y1="64.017" x2="64.017" y2="10.983"/>
<polygon stroke="#000000" stroke-miterlimit="10" points="61.739,8.619 66.142,13.34 68.029,7.167 "/>
<line fill="#FFFFFF" stroke="#000000" stroke-miterlimit="10" x1="15.638" y1="59.43" x2="10.645" y2="59.69"/>
<line fill="#FFFFFF" stroke="#000000" stroke-miterlimit="10" x1="13.669" y1="61.409" x2="8.676" y2="61.67"/>
<line fill="#FFFFFF" stroke="#000000" stroke-miterlimit="10" x1="17.512" y1="57.473" x2="12.519" y2="57.733"/>
<line fill="#FFFFFF" stroke="#000000" stroke-miterlimit="10" x1="16.302" y1="64.469" x2="15.347" y2="59.561"/>
<line fill="#FFFFFF" stroke="#000000" stroke-miterlimit="10" x1="18.223" y1="62.381" x2="17.269" y2="57.473"/>
<line fill="#FFFFFF" stroke="#000000" stroke-miterlimit="10" x1="14.379" y1="66.448" x2="13.425" y2="61.54"/>
<line fill="#FFFFFF" stroke="#000000" stroke-miterlimit="10" x1="64.869" y1="64.709" x2="11.836" y2="11.676"/>
<polygon stroke="#000000" stroke-miterlimit="10" points="14.113,9.312 9.711,14.032 7.823,7.859 "/>
<line fill="#FFFFFF" stroke="#000000" stroke-miterlimit="10" x1="60.214" y1="60.122" x2="65.208" y2="60.383"/>
<line fill="#FFFFFF" stroke="#000000" stroke-miterlimit="10" x1="62.183" y1="62.102" x2="67.177" y2="62.362"/>
<line fill="#FFFFFF" stroke="#000000" stroke-miterlimit="10" x1="58.341" y1="58.165" x2="63.334" y2="58.426"/>
<line fill="#FFFFFF" stroke="#000000" stroke-miterlimit="10" x1="59.55" y1="65.161" x2="60.505" y2="60.253"/>
<line fill="#FFFFFF" stroke="#000000" stroke-miterlimit="10" x1="57.629" y1="63.073" x2="58.584" y2="58.165"/>
<line fill="#FFFFFF" stroke="#000000" stroke-miterlimit="10" x1="61.474" y1="67.141" x2="62.427" y2="62.232"/>
<g>
	<path d="M34.081,11.833v-8.59h1.166l4.512,6.744V3.244h1.09v8.59h-1.166l-4.512-6.75v6.75H34.081z"/>
</g>
<g>
	<path d="M34.037,64.905l1.072-0.094c0.051,0.43,0.169,0.782,0.354,1.058s0.474,0.498,0.864,0.668s0.83,0.255,1.318,0.255
		c0.434,0,0.816-0.064,1.148-0.193s0.579-0.306,0.741-0.53s0.243-0.47,0.243-0.735c0-0.27-0.078-0.505-0.234-0.706
		s-0.414-0.37-0.773-0.507c-0.23-0.09-0.74-0.229-1.529-0.419s-1.342-0.368-1.658-0.536c-0.41-0.215-0.716-0.481-0.917-0.8
		s-0.302-0.675-0.302-1.069c0-0.434,0.123-0.839,0.369-1.216s0.605-0.663,1.078-0.858s0.998-0.293,1.576-0.293
		c0.637,0,1.198,0.103,1.685,0.308s0.86,0.507,1.122,0.905s0.402,0.85,0.422,1.354l-1.09,0.082c-0.059-0.543-0.257-0.953-0.595-1.23
		s-0.837-0.416-1.497-0.416c-0.688,0-1.188,0.126-1.503,0.378s-0.472,0.556-0.472,0.911c0,0.309,0.111,0.563,0.334,0.762
		c0.219,0.199,0.79,0.403,1.714,0.612s1.558,0.392,1.901,0.548c0.5,0.23,0.869,0.522,1.107,0.876s0.357,0.761,0.357,1.222
		c0,0.457-0.131,0.888-0.393,1.292s-0.638,0.719-1.128,0.943s-1.042,0.337-1.655,0.337c-0.777,0-1.429-0.113-1.954-0.34
		s-0.938-0.567-1.236-1.022S34.053,65.479,34.037,64.905z"/>
</g>
<g>
	<path d="M61.163,40.701v-8.59h6.211v1.014H62.3v2.631h4.752v1.008H62.3v2.924h5.273v1.014H61.163z"/>
</g>
<g>
	<path d="M8.926,40.701l-2.279-8.59h1.166l1.307,5.631c0.141,0.59,0.262,1.176,0.363,1.758c0.219-0.918,0.348-1.447,0.387-1.588
		l1.635-5.801h1.371l1.23,4.348c0.309,1.078,0.531,2.092,0.668,3.041c0.109-0.543,0.252-1.166,0.428-1.869l1.348-5.52h1.143
		l-2.355,8.59H14.24l-1.811-6.545c-0.152-0.547-0.242-0.883-0.27-1.008c-0.09,0.395-0.174,0.73-0.252,1.008l-1.822,6.545H8.926z"/>
</g>
</svg>
