<?xml version="1.0" encoding="utf-8"?>
<!-- Generator: Adobe Illustrator 16.0.0, SVG Export Plug-In . SVG Version: 6.00 Build 0)  -->
<!DOCTYPE svg PUBLIC "-//W3C//DTD SVG 1.1//EN" "http://www.w3.org/Graphics/SVG/1.1/DTD/svg11.dtd">
<svg version="1.1" id="Layer_1" xmlns="http://www.w3.org/2000/svg" xmlns:xlink="http://www.w3.org/1999/xlink" x="0px" y="0px"
	 width="75px" height="75px" viewBox="0 0 75 75" enable-background="new 0 0 75 75" xml:space="preserve">
<g>
	<g>
		<polyline points="33.417,28.455 23.287,23.648 28.417,33.454 		"/>
		<polyline points="28.419,41.684 23.614,51.813 33.417,46.684 		"/>
		<polyline points="41.174,46.846 51.305,51.651 46.174,41.848 		"/>
		<polyline points="46.896,33.617 51.702,23.486 41.897,28.617 		"/>
		<g>
			<g>
				<polygon stroke="#000000" stroke-width="0.1" stroke-miterlimit="10" points="37.5,8.874 30.906,30.906 37.5,25.149 				"/>
				<polygon id="XMLID_1_" fill="#FFFFFF" stroke="#000000" stroke-width="0.1" stroke-miterlimit="10" points="37.5,8.874 
					44.096,30.906 37.5,25.149 				"/>
			</g>
			<g>
				<polygon stroke="#000000" stroke-width="0.1" stroke-miterlimit="10" points="8.875,37.5 30.906,44.095 25.15,37.5 				"/>
				<polygon id="XMLID_2_" fill="#FFFFFF" stroke="#000000" stroke-width="0.1" stroke-miterlimit="10" points="8.875,37.5 
					30.906,30.906 25.15,37.5 				"/>
			</g>
			<g>
				<polygon stroke="#000000" stroke-width="0.1" stroke-miterlimit="10" points="37.501,66.126 44.094,44.095 37.501,49.851 				
					"/>
				<polygon id="XMLID_3_" fill="#FFFFFF" stroke="#000000" stroke-width="0.1" stroke-miterlimit="10" points="37.501,66.126 
					30.906,44.095 37.501,49.851 				"/>
			</g>
			<g>
				<polygon stroke="#000000" stroke-width="0.1" stroke-miterlimit="10" points="66.125,37.5 44.094,30.906 49.85,37.5 				"/>
				<polygon id="XMLID_4_" fill="#FFFFFF" stroke="#000000" stroke-width="0.1" stroke-miterlimit="10" points="66.125,37.5 
					44.094,44.095 49.85,37.5 				"/>
			</g>
		</g>
	</g>
	<g>
		<path fill="#FFFFFF" stroke="#000000" stroke-width="0.1" stroke-miterlimit="10" d="M46.295,37.499
			c0-4.856-3.939-8.794-8.795-8.794v8.794H46.295z"/>
		<path stroke="#000000" stroke-width="0.1" stroke-miterlimit="10" d="M37.5,28.705c-4.856,0-8.794,3.938-8.794,8.794H37.5V28.705z
			"/>
		<path stroke="#000000" stroke-width="0.1" stroke-miterlimit="10" d="M37.5,37.499v8.796c4.856,0,8.795-3.938,8.795-8.796H37.5z"
			/>
		<path fill="#FFFFFF" stroke="#000000" stroke-width="0.1" stroke-miterlimit="10" d="M28.705,37.499
			c0,4.857,3.938,8.796,8.794,8.796v-8.796H28.705z"/>
	</g>
</g>
<g>
	<path d="M39.108,7.98l-3.242-4.839v4.136l0.894,0.161l-0.049,0.396h-2.325l0.039-0.361l0.815-0.229V2.375L34.358,2.13l0.049-0.371
		h1.719l3.135,4.746v-4.17L38.356,2.13l0.055-0.371h2.324L40.671,2.13l-0.814,0.19v5.503L39.108,7.98z"/>
</g>
<g>
	<path d="M38.898,69.502l-0.482-0.053l-0.127-0.938c-0.053-0.104-0.158-0.207-0.315-0.309c-0.157-0.101-0.328-0.15-0.51-0.15
		c-0.264,0-0.479,0.076-0.645,0.231s-0.249,0.384-0.249,0.687c0,0.149,0.033,0.287,0.098,0.414s0.153,0.238,0.264,0.335
		s0.238,0.188,0.381,0.276s0.293,0.172,0.45,0.254c0.156,0.081,0.313,0.164,0.471,0.251s0.309,0.183,0.451,0.288
		c0.145,0.105,0.27,0.219,0.379,0.34c0.109,0.12,0.197,0.264,0.264,0.432s0.1,0.35,0.1,0.545c0,0.273-0.061,0.527-0.184,0.762
		c-0.121,0.234-0.283,0.43-0.482,0.586c-0.201,0.156-0.432,0.279-0.693,0.368s-0.531,0.134-0.808,0.134
		c-0.338,0-0.657-0.068-0.955-0.207s-0.53-0.311-0.696-0.516l0.068-1.303l0.498,0.072l0.186,0.918
		c0.094,0.15,0.232,0.277,0.413,0.381c0.181,0.104,0.38,0.156,0.598,0.156c0.137,0,0.27-0.02,0.401-0.061
		c0.13-0.041,0.254-0.1,0.371-0.178s0.211-0.186,0.279-0.322c0.07-0.137,0.105-0.292,0.105-0.465c0-0.172-0.051-0.33-0.153-0.473
		c-0.103-0.144-0.235-0.268-0.4-0.374s-0.346-0.212-0.544-0.317s-0.397-0.219-0.596-0.337s-0.381-0.247-0.547-0.386
		s-0.3-0.309-0.403-0.513s-0.154-0.427-0.154-0.671c0-0.355,0.093-0.666,0.278-0.934c0.186-0.267,0.42-0.466,0.703-0.598
		s0.587-0.197,0.913-0.197c0.531,0,0.991,0.162,1.381,0.488L38.898,69.502z"/>
</g>
<g>
	<path d="M66.295,34.423h4.864l-0.156,1.563l-0.42-0.068l-0.201-1.045h-2.304v2.319h1.415l0.211-0.581l0.459-0.063l-0.156,1.894
		l-0.426,0.064l-0.16-0.855h-1.343v2.382h2.427l0.473-1.127l0.406,0.063l-0.146,1.529h-4.962l0.039-0.361l0.816-0.23V35
		l-0.885-0.205L66.295,34.423z"/>
</g>
<g>
	<path d="M6.401,40.619l-1.279-4.77l-1.393,4.624l-0.791,0.146L1.342,35l-0.679-0.205l0.039-0.371h2.515l-0.068,0.371l-0.821,0.19
		l1.182,4.185l1.371-4.502l0.865-0.122l1.205,4.55L8.228,35l-0.885-0.205l0.059-0.371h2.193l-0.059,0.371l-0.596,0.19l-1.787,5.488
		L6.401,40.619z"/>
</g>
<line fill="none" x1="23.597" y1="1.492" x2="23.597" y2="9.503"/>
</svg>
