<?xml version="1.0" encoding="utf-8"?>
<!-- Generator: Adobe Illustrator 21.0.0, SVG Export Plug-In . SVG Version: 6.00 Build 0)  -->
<svg version="1.1" id="Capa_1" xmlns="http://www.w3.org/2000/svg" xmlns:xlink="http://www.w3.org/1999/xlink" x="0px" y="0px"
	 viewBox="0 0 600 600" style="enable-background:new 0 0 600 600;" xml:space="preserve">
<style type="text/css">
	.st0{fill:#FFFFFF;}
	.st1{fill:#00AAA5;}
</style>
<title>Logo2_b</title>
<path class="st0" d="M459.6,356.9c-0.8-2.4-2-4.5-3.5-6.5c-1.8-2.2-4.1-4-6.7-5.3c-3.2-1.6-6.8-2.3-10.4-2.2
	c-3.5-0.1-7.1,0.6-10.3,2.1c-2.6,1.3-4.8,3-6.7,5.2c-1.6,1.9-2.8,4.1-3.6,6.5c-0.7,1.9-1.1,3.9-1.3,5.9h43.6
	C460.6,360.7,460.2,358.8,459.6,356.9z"/>
<path class="st0" d="M437.3,455.1c2.5-0.4,4.9-1.2,7-2.4c2-1.1,3.8-2.7,5-4.6c1.3-2.2,2-4.8,1.9-7.4c0-3.4-0.8-6.1-2.3-8
	s-3.5-3.4-5.7-4.3c-2.4-0.9-4.9-1.5-7.4-1.7c-2.6-0.2-5.1-0.3-7.4-0.3h-10.7v29.4H429C431.9,455.8,434.6,455.5,437.3,455.1z"/>
<path class="st0" d="M448,464.8c-2.4-1.3-5-2.2-7.7-2.6c-2.6-0.4-5.2-0.7-7.8-0.7h-14.8v34h17.8c2.6,0,5.1-0.3,7.6-0.9
	c2.4-0.5,4.6-1.5,6.7-2.9c1.9-1.3,3.5-3,4.6-5.1c1.2-2.4,1.8-5,1.7-7.7c0.1-3.1-0.7-6.2-2.4-8.8C452.3,467.9,450.3,466.1,448,464.8z
	"/>
<path class="st0" d="M586,424.4c0-2.4-0.5-4.8-1.4-7c-1.8-4.3-5.3-7.8-9.7-9.6c-2.2-0.9-4.6-1.4-7-1.4s-4.7,0.4-6.9,1.3
	c-4.4,1.7-7.9,5.1-9.9,9.4c-1,2.3-1.6,4.8-1.5,7.4v7.5c0,1.7,0.2,3.4,0.7,5c-3.5-2.2-7.2-3.9-11.1-5.1c-4.3-1.4-8.8-2.1-13.4-2.1
	c-5.9-0.1-11.7,1-17.1,3.3c-4.6,1.9-8.9,4.7-12.5,8.2c-0.1-0.2-0.2-0.3-0.2-0.5c1.5-2.7,2.2-5.7,2.2-8.8v-7.5c0-2.4-0.5-4.8-1.4-7
	c-1.5-3.4-3.9-6.3-7.1-8.3c0.7-0.2,1.3-0.4,2-0.7c2.1-0.9,4.1-2.3,5.7-4s2.9-3.6,3.8-5.8c0.9-2.2,1.4-4.5,1.4-6.9v-29.1
	c-0.1-0.7,0.2-1.5,0.7-2c0.4-0.4,1-0.6,1.5-0.6s1,0.3,1.4,0.6c0.5,0.5,0.8,1.3,0.7,2v29.1c0,2.3,0.4,4.6,1.3,6.7
	c1.7,4.4,5.1,7.9,9.4,9.8c2.3,1,4.8,1.6,7.4,1.5c2.4,0,4.8-0.5,7-1.4c4.3-1.8,7.8-5.3,9.7-9.6c0.9-2.2,1.4-4.6,1.4-7V356
	c0-3.5-0.5-7-1.3-10.5c-0.9-3.9-2.5-7.6-4.8-10.8c-2.6-3.6-5.9-6.5-9.8-8.5c-4.2-2.3-9.5-3.5-16.1-3.5c-3.1,0-6.3,0.3-9.4,0.9
	c-2.7,0.6-5.3,1.4-7.8,2.4c-2.8-1.8-6.1-2.7-9.4-2.6c-6.9-0.1-13.1,3.8-16.1,10c-3.4-3.1-7.3-5.7-11.5-7.7
	c-5.5-2.5-11.5-3.7-17.5-3.6c-5.7,0-11.3,1-16.6,3.1c-5.1,2-9.8,5-13.8,8.8c-4,3.9-7.2,8.6-9.4,13.8c-2.4,5.7-3.6,11.9-3.5,18.1
	c0,5.7,1,11.4,2.9,16.7c1.9,5.2,4.7,9.9,8.4,14c3.4,3.8,7.6,6.8,12.1,9h-4.7c-2.5,0-4.9,0.5-7.2,1.5c-2.1,0.9-4.1,2.3-5.7,4
	s-2.9,3.6-3.8,5.8c-0.9,2.2-1.4,4.5-1.4,6.9v74.3c0,2.4,0.5,4.8,1.4,7c1.8,4.3,5.3,7.8,9.6,9.6c2.2,0.9,4.6,1.4,7,1.4h23.6
	c4.4,0,8.8-0.7,13-2.1c4.5-1.4,8.8-3.6,12.5-6.5l0.1-0.1c0.8,1.7,1.9,3.2,3.2,4.5c1.6,1.7,3.6,3,5.7,4c2.3,1,4.7,1.5,7.1,1.5
	s4.8-0.5,7.1-1.4c2.2-0.9,4.1-2.2,5.8-3.9c1.6-1.7,2.9-3.6,3.9-5.7c3.6,3.3,7.7,6,12.3,7.8c5.4,2.2,11.2,3.2,17,3.2
	c4.3-0.1,8.5-0.7,12.6-1.9c4.4-1.3,8.7-3.2,12.6-5.6c0.5-0.3,1-0.6,1.4-0.9c0.7,1.1,1.5,2.2,2.4,3.1c1.6,1.7,3.6,3,5.7,4
	c2.3,1,4.7,1.5,7.2,1.5c2.4,0,4.8-0.5,7.1-1.4c2.2-0.9,4.1-2.2,5.8-3.9c1.6-1.7,2.9-3.6,3.9-5.8c1-2.2,1.5-4.6,1.5-7V449
	c0-2.9-0.7-5.8-2.1-8.3c1.5-2.7,2.2-5.7,2.2-8.8L586,424.4z M476.9,424.4c0-0.8,0.3-1.6,0.9-2.1c0.7-0.6,1.5-0.9,2.4-0.9
	c0.8,0,1.6,0.3,2.2,0.9c0.5,0.6,0.8,1.4,0.8,2.1v7.5c0,0.8-0.3,1.6-0.9,2.1c-0.7,0.6-1.5,0.9-2.4,0.9c-1.7,0-3-1.4-3-3V424.4z
	 M482.3,339.2c0.5-0.6,1.3-0.9,2.1-0.8c0.7,0,1.4,0.3,1.9,0.8s0.9,1.2,1,1.9l0.3,7.6c1.2-1.2,2.5-2.5,4-3.8c1.6-1.4,3.3-2.6,5.1-3.6
	c4.3-2.5,9.3-3.8,14.3-3.7c2.9-0.1,5.8,0.4,8.5,1.6c2.1,0.9,3.8,2.4,5.2,4.2c1.3,1.8,2.1,3.8,2.6,5.9c0.5,2.2,0.7,4.4,0.8,6.7v35.8
	c0,1.7-1.4,3.1-3.1,3.1s-3.1-1.4-3.1-3.1v-34.5c0-1.5-0.1-2.9-0.3-4.4c-0.2-1.6-0.7-3.1-1.5-4.5c-0.9-1.5-2.1-2.7-3.6-3.5
	c-2.1-1.1-4.4-1.6-6.7-1.5c-2.6,0-5.2,0.5-7.6,1.5c-2.2,0.9-4.3,2.1-6.3,3.6c-1.8,1.4-3.4,2.9-4.9,4.6c-1.4,1.6-2.5,3.1-3.5,4.4
	v34.3c0,1.7-1.4,3.1-3.1,3.1s-3.1-1.4-3.1-3.1v-50.5C481.5,340.5,481.8,339.7,482.3,339.2L482.3,339.2z M412.8,377.3
	c-1.3-3.7-1.9-7.5-1.8-11.4c-0.1-4.1,0.7-8.2,2.3-12c1.4-3.4,3.5-6.5,6.1-9.1c2.6-2.5,5.6-4.5,9-5.8c3.5-1.4,7.2-2,11-2
	c3.9-0.1,7.8,0.7,11.4,2.4c3.2,1.5,6.1,3.5,8.5,6c2.3,2.3,4.1,5.1,5.4,8c1.2,2.6,1.8,5.4,1.9,8.2v0.1c0,2.3-0.5,3.9-1.5,4.9
	c-1.3,1.1-3,1.6-4.7,1.5h-43c0.2,2,0.5,4,1.1,6c0.7,2.5,1.9,4.8,3.4,6.9c1.7,2.3,4,4.3,6.5,5.7c3.2,1.7,6.7,2.5,10.3,2.4
	c2.2,0,4.3-0.2,6.4-0.8c1.7-0.4,3.3-1.1,4.9-1.9c1.3-0.7,2.6-1.7,3.7-2.7c1-1,1.9-2,2.7-3.2c0.4-0.5,0.8-0.9,1.3-1.3
	c0.4-0.3,1-0.5,1.5-0.5c0.9-0.1,1.7,0.3,2.3,1c0.5,0.6,0.8,1.3,0.8,2.1c0,0.6-0.2,1.2-0.4,1.7c-1.1,1.5-2.3,2.9-3.5,4.2
	c-1.4,1.5-3.1,2.7-4.9,3.7c-2,1.1-4.2,2-6.4,2.6c-2.6,0.7-5.3,1-8,1c-4,0.1-8-0.7-11.7-2.2c-3.3-1.4-6.3-3.5-8.8-6.1
	C416,383.9,414,380.7,412.8,377.3L412.8,377.3z M459.8,489.1c-1.3,2.6-3.1,4.9-5.4,6.7c-2.3,1.8-4.8,3.1-7.6,4
	c-2.8,0.9-5.6,1.3-8.5,1.3h-23.6c-1.7,0-3-1.4-3-3v-74.4c0-0.8,0.3-1.6,0.9-2.2c0.6-0.5,1.4-0.8,2.1-0.8h14.2
	c3.4,0,6.8,0.2,10.2,0.6c3.2,0.4,6.3,1.3,9.2,2.7c2.7,1.3,4.9,3.3,6.6,5.8s2.5,5.8,2.5,10c0.1,2.5-0.3,5-1.2,7.4
	c-0.7,1.9-1.8,3.7-3.1,5.3c-1.2,1.4-2.6,2.7-4.1,3.7c-1.4,0.9-2.8,1.7-4.3,2.4c2,0.5,3.9,1.2,5.7,2.1c2.1,1,4,2.2,5.7,3.8
	c1.8,1.7,3.3,3.8,4.3,6.1C462.6,476.6,462.5,483.3,459.8,489.1L459.8,489.1z M483.2,499.3c0,0.8-0.3,1.6-0.9,2.1
	c-0.6,0.6-1.4,0.9-2.3,0.9c-0.8,0-1.6-0.3-2.1-0.9s-0.8-1.4-0.8-2.1V449c0-0.8,0.3-1.6,0.8-2.1c0.6-0.6,1.4-0.9,2.2-0.9
	c1.7,0,3,1.4,3,3L483.2,499.3L483.2,499.3z M510.1,490.5c3.8,4,9.1,6,15.8,6c3.7,0.1,7.4-0.7,10.7-2.3c2.9-1.5,5.4-3.8,7.2-6.6
	c0.6-1,1.6-1.6,2.8-1.7c0.8,0,1.6,0.3,2.2,0.9c0.6,0.5,0.9,1.2,0.9,2c0,0.5-0.1,0.9-0.4,1.3c-2.4,3.8-5.8,6.9-9.7,9
	c-4.2,2.2-8.9,3.3-13.6,3.2c-3.8,0-7.5-0.6-11-2c-3.3-1.3-6.3-3.2-8.8-5.8c-2.5-2.6-4.5-5.7-5.8-9.1c-1.4-3.8-2.1-7.9-2.1-12
	c-0.1-4.1,0.7-8.1,2.1-11.9c1.3-3.4,3.2-6.5,5.7-9.1c2.5-2.5,5.4-4.5,8.7-5.8c8.1-3.1,17.1-2.7,24.9,1.1c4,2.1,7.4,5.2,9.7,9
	c0.2,0.4,0.3,0.8,0.3,1.3c0,0.7-0.3,1.5-0.8,2c-0.5,0.6-1.2,0.9-1.9,0.9c-1.1-0.1-2.2-0.7-2.8-1.7c-3.9-6-9.9-9-18.2-9
	c-6.8,0-12,2.1-15.8,6.2s-5.7,9.8-5.7,17C504.4,480.8,506.3,486.5,510.1,490.5L510.1,490.5z M570.9,499.3c0,0.8-0.3,1.6-0.9,2.1
	c-0.6,0.6-1.4,0.9-2.3,0.9c-0.8,0-1.6-0.3-2.1-0.9s-0.8-1.4-0.8-2.1V449c0-0.8,0.3-1.6,0.8-2.1c0.6-0.6,1.4-0.9,2.2-0.9
	c1.7,0,3,1.4,3,3L570.9,499.3z M571,431.9c0,0.8-0.3,1.6-0.9,2.1c-0.7,0.6-1.5,0.9-2.4,0.9c-1.7,0-3-1.4-3-3v-7.5
	c0-0.8,0.3-1.6,0.9-2.1c0.7-0.6,1.5-0.9,2.4-0.9c0.8,0,1.6,0.3,2.2,0.9c0.5,0.6,0.8,1.4,0.8,2.1V431.9z"/>
<path class="st0" d="M374.5,519.1c-4.1,0-7.5-3.4-7.5-7.5l0,0V327.7c0-4.1,3.4-7.5,7.5-7.5s7.5,3.4,7.5,7.5v183.9
	C382,515.8,378.6,519.1,374.5,519.1L374.5,519.1z"/>
<path class="st0" d="M351.8,421.9c-1.3-3.5-3.3-6.7-5.7-9.6c-2.4-2.8-5.3-5.2-8.6-6.9c-3.4-1.8-7-2.9-10.8-3.4
	c12.1-4.8,20-16.6,19.9-29.6c0.1-8.1-2.8-15.9-8-22c-5.6-6.6-12.5-12.2-20.2-16.3c-8.3-4.5-17.2-7.9-26.5-10.1
	c-8.8-2.2-17.9-3.3-27-3.4c-14.9,0-28.3,2.5-40.2,7.5c-11.5,4.8-21.9,11.8-30.6,20.8l-0.5,0.5c-0.4-2.5-1.1-5-2.1-7.3
	c-3.2-7.6-9.3-13.7-16.9-16.9c-8-3.3-16.9-3.2-24.9,0.1c-3.8,1.6-7.2,4-10,6.9c-1.2,1.3-2.3,2.7-3.3,4.1c-2.7-2.2-5.6-4.1-8.6-5.7
	c-6.7-3.5-13.8-6.2-21.1-7.8c-7-1.6-14.2-2.5-21.4-2.5c-8.6,0-17.2,1.3-25.4,3.9c-8,2.5-15.4,6.4-21.9,11.7
	c-6.5,5.3-11.8,12-15.4,19.5c-3.9,7.9-5.8,17-5.8,27.3c0,11,2.3,20.4,6.9,28.1s10.7,14.4,17.9,19.7c6.5,4.8,21,12.1,24,13.5
	c-2.8-1.1-15.4-5.1-27.8-1c-4.7,1.5-8.9,4.2-12.3,7.8c-2.9,3-5.3,6.5-7,10.3c-1.8,4-2.7,8.4-2.7,12.8c-0.1,7.2,2.5,14.2,7.3,19.6
	c5,5.7,11.1,10.4,17.9,13.9c7.2,3.7,14.7,6.5,22.6,8.3c7.1,1.7,14.4,2.7,21.7,2.8c9.5,0.1,18.9-1.4,27.9-4.3
	c7.9-2.5,15.2-6.4,21.7-11.5c3.5,6,8.8,10.6,15.1,13.3c3.9,1.6,8.1,2.5,12.3,2.4c4.1,0,8.2-0.8,12-2.4c3.7-1.6,7.1-3.8,10.1-6.6
	c3-2.8,5.3-6.2,6.9-10c1.4-3.2,2.3-6.7,2.5-10.2c0.7,0.7,1.4,1.5,2.1,2.2c8.9,8.6,19.4,15.4,31,19.9c12.2,4.7,25.1,7.1,38.1,7
	c14.2,0,27-2.5,38.4-7.5c5.4,4.3,12.1,6.6,19,6.6c17.2,0.1,31.2-13.8,31.3-31c0-0.1,0-0.2,0-0.4v-53
	C353.9,429.2,353.2,425.4,351.8,421.9z M119.2,481.8c-7.8,6.9-19,10.3-33.8,10.3c-7.9,0.1-15.8-1.4-23.2-4.3
	c-6.6-2.6-12.8-6.1-18.3-10.6c-1.2-0.7-1.8-2-1.7-3.4c0.1-3.3,2.8-6,6.1-6.1c0.7,0,1.3,0.2,1.9,0.5l1.9,1c4.8,3.9,10.2,7.1,15.9,9.4
	c5.9,2.2,12.1,3.3,18.3,3.3c10,0,18.1-2.2,24.3-6.7s9.2-11.1,9.2-19.8c0-6.3-1.9-11.5-5.7-15.4c-4.1-4.2-8.9-7.7-14.2-10.3
	c-6-3-12.1-5.7-18.5-8s-12.6-5.2-18.5-8.5c-5.5-3.1-10.3-7.1-14.2-12c-3.8-4.8-5.7-10.9-5.7-18.3c-0.1-5.3,1-10.5,3.2-15.3
	c2-4.4,5-8.3,8.8-11.4c4-3.2,8.5-5.6,13.4-7c5.5-1.7,11.2-2.5,17-2.4c4,0.1,7.9,0.5,11.8,1.3c4.3,0.8,8.5,2,12.6,3.5
	c3.6,1.3,7,3,10.2,5.2c2.8,2,4.2,4.1,4.3,6.2c0,1.5-0.6,3-1.7,4s-2.6,1.6-4.1,1.6c-1.4,0-2.7-0.4-3.9-1.2c-4.8-3.1-9.9-5.6-15.3-7.5
	c-5.1-1.8-10.6-2.7-16-2.7c-9.7,0-17,2.3-21.7,7c-4.7,4.5-7.3,10.8-7.2,17.3c-0.1,3.7,0.7,7.3,2.3,10.6c1.7,3.1,4.1,5.7,6.9,7.8
	c3.5,2.6,7.3,4.8,11.3,6.4c4.5,1.9,9.5,4.1,15.2,6.3c5.2,2.1,10.2,4.3,15.2,6.7c4.7,2.2,9.1,5,13.1,8.4c3.7,3.2,6.8,7,9.1,11.3
	c2.4,4.7,3.5,9.9,3.4,15.1l0,0C130.9,465.6,127,474.9,119.2,481.8L119.2,481.8z M166.2,490.5c-2.1,2.1-5.5,2.1-7.6,0
	c-1-1-1.6-2.3-1.6-3.8V454v-0.1v-0.1v-99.5c-0.1-1.5,0.5-2.9,1.6-3.9c2.1-1.9,5.4-1.9,7.5,0c1.1,1,1.6,2.4,1.6,3.9v65v0.1
	c0,0,0,0.1,0,0.2v67.1C167.9,488.1,167.3,489.5,166.2,490.5L166.2,490.5z M327.7,486c0,1.3-0.5,2.6-1.5,3.5c-1.9,2-5.1,2.1-7.1,0.2
	c-0.1-0.1-0.2-0.1-0.2-0.2c-0.9-0.9-1.4-2.2-1.5-3.5v-20.9c-1.6,3.3-3.6,6.4-6,9.2c-3,3.5-6.6,6.5-10.6,8.8c-4.8,2.8-10,5-15.4,6.4
	c-6.6,1.8-13.4,2.6-20.3,2.5c-9.6,0.1-19.1-1.6-28.1-5c-17.3-6.4-31-20-37.6-37.2c-3.8-9.7-5.6-20-5.5-30.4v-0.2
	c-0.1-10.1,1.6-20.1,5-29.5c3.1-8.5,7.9-16.4,14.1-23c6.2-6.5,13.8-11.6,22.3-14.8c9.5-3.6,19.5-5.3,29.6-5.2
	c12.8,0,23.9,2.1,33.3,6.3c9.4,4.2,16.4,9.5,21.1,16c0.7,0.9,1,2,1,3.2c0,1.5-0.5,3-1.6,4.1c-1,1.1-2.5,1.7-4,1.7s-2.9-0.6-3.9-1.7
	c-3.9-5.2-9.8-9.7-17.6-13.6c-7.9-3.9-17.5-5.8-28.8-5.8c-8.6-0.1-17.2,1.5-25.1,4.7c-7.1,3-13.6,7.5-18.8,13.1
	c-5.2,5.7-9.3,12.4-11.9,19.7c-2.8,7.8-4.2,16.1-4.1,24.5c-0.1,8.7,1.5,17.4,4.6,25.5c5.6,14.8,17.2,26.7,31.8,32.8
	c7.5,3.1,15.5,4.7,23.6,4.6c6.5,0,13-0.9,19.3-2.8c6-1.8,11.7-4.6,16.8-8.4c4.9-3.7,9-8.4,12-13.7c3.2-5.8,4.8-12.2,4.9-18.8h-35.7
	c-1.4,0-2.7-0.5-3.6-1.6c-1.9-1.9-1.9-5.1,0-7c0.9-1,2.3-1.6,3.6-1.6h40.8c1.4,0,2.7,0.5,3.6,1.6c0.9,0.9,1.4,2.2,1.5,3.5L327.7,486
	L327.7,486z"/>
<path class="st1" d="M408.5,123.2c-0.2,0-0.5,0-0.7,0.1s-0.5-0.1-0.7-0.1c-6.6,0-13.3,0.8-19.7,2.3l-28.8-73.1
	c-1.1-2.8-3.8-4.7-6.8-4.7l-36.4-0.8c-4.1-0.2-7.6,3-7.8,7.1c-0.2,4.1,3,7.6,7.1,7.8c0.1,0,0.3,0,0.4,0l31.4,0.7l26.7,67.8
	c-9.3,4.1-17.9,10-25.1,17.2l-47.9,47.3L247.1,82.3l12.1,0.1h0.1c4.1,0,7.5-3.3,7.5-7.4s-3.3-7.5-7.4-7.5L213.2,67h-0.1
	c-4.1,0.3-7.2,3.8-7,7.9c0.2,3.7,3.2,6.7,6.8,7l17.5,0.2l14.9,31.5L178,205.1c-2.4,3.3-1.7,8,1.6,10.4c1.3,0.9,2.8,1.4,4.4,1.5h93.7
	L239,255.3c-27.1,26-70.2,25-96.1-2.1c-12.1-12.7-18.9-29.5-18.9-47.1c0.2-31.7,22.1-59.2,53-66.3c4-1,6.4-5,5.5-9
	c-1-3.9-4.8-6.3-8.8-5.5c-44.7,10.1-72.7,54.6-62.5,99.2s54.6,72.7,99.2,62.5c14.6-3.3,28.1-10.5,38.9-20.9l0,0l0,0l46.4-45.8
	l12.6,26.7l-5.9,2c-4,1.1-6.3,5.2-5.2,9.2c1.1,4,5.2,6.3,9.2,5.2c0.3-0.1,0.6-0.2,0.9-0.3l12.9-4.4c0.6-0.1,1.2-0.3,1.7-0.6l0.1-0.1
	l12.8-4.4c3.9-1.4,6-5.6,4.6-9.5s-5.6-6-9.5-4.6l-7.4,2.6L307,209l51.6-51c5.8-5.8,12.6-10.5,20.1-13.9l27.8,70.6
	c1.5,3.9,5.8,5.8,9.6,4.3c3.9-1.5,5.8-5.8,4.3-9.6c0-0.1,0-0.1-0.1-0.2l-27.5-69.8c4.7-1,9.4-1.5,14.2-1.5c0.2,0,0.5,0,0.7-0.1
	s0.5,0.1,0.7,0.1c37.6,0,68,30.5,68,68c0,37.6-30.5,68-68,68c-18.5,0-36.2-7.5-49-20.8c-2.8-3-7.5-3.2-10.5-0.5
	c-3,2.8-3.2,7.5-0.5,10.5c0.1,0.1,0.2,0.2,0.2,0.3c31.8,33,84.2,34,117.3,2.3s34-84.2,2.3-117.3
	C452.7,132.3,431.1,123.1,408.5,123.2L408.5,123.2z M252.7,128.9l34.6,73.2h-88.5L252.7,128.9z"/>
</svg>
