<!-- <?xml version="1.0" encoding="utf-8"?> -->
<!-- Generator: Adobe Illustrator 21.0.0, SVG Export Plug-In . SVG Version: 6.00 Build 0)  -->
<svg version="1.1" class="icon" id="Capa_1" xmlns="http://www.w3.org/2000/svg" xmlns:xlink="http://www.w3.org/1999/xlink" x="0px" y="0px"
	 viewBox="0 0 600 600" style="enable-background:new 0 0 600 600;" xml:space="preserve">
<style type="text/css">
	.st0{fill:#90C64B;}
	.st1{fill:#00AAA5;}
	.st2{fill:none;stroke:#666666;stroke-width:15;stroke-linecap:round;stroke-linejoin:round;stroke-miterlimit:10;}
	.st3{fill:#666666;}
</style>
<g>
	<path class="st0" d="M114.4,394.4c6.2,2.9,11.9,6.4,17.1,10.3c5.3,4,9.8,8.5,13.6,13.5c3.8,5,6.8,10.5,8.9,16.4
		c2.1,5.9,3.2,12.4,3.2,19.3c0,10.4-1.9,19.6-5.6,27.6c-3.7,8-8.8,14.7-15.3,20.2c-6.5,5.4-14.1,9.6-22.8,12.4
		c-8.7,2.8-18.1,4.3-27.9,4.3c-6.5,0-13.7-0.9-21.7-2.8c-8-1.9-15.5-4.6-22.6-8.3c-7-3.6-13-8.3-17.9-13.8
		c-4.9-5.6-7.3-12.1-7.3-19.6c0-4.5,0.9-8.8,2.7-12.8c1.8-4,4.1-7.4,7-10.3c2.9-2.9,6.3-5.2,10.2-6.8c3.9-1.6,8-2.4,12.4-2.4
		c3.7,0,7.2,0.7,10.3,2.2c3.2,1.5,6.2,3.1,9.1,4.9c2.9,1.8,5.9,3.4,8.9,4.9c3,1.5,6.3,2.2,9.8,2.2c2.9,0,5.1-0.2,6.6-0.7
		c-8.7-3.4-17.7-7-26.7-10.7c-9.1-3.7-17.2-8.3-24.5-13.7c-7.3-5.4-13.2-12-17.9-19.7c-4.6-7.7-6.9-17-6.9-28.1
		c0-10.4,1.9-19.5,5.8-27.3c3.9-7.9,9-14.4,15.4-19.6c6.4-5.2,13.7-9.1,21.9-11.7c8.2-2.6,16.6-3.9,25.4-3.9
		c6.6,0,13.8,0.9,21.4,2.6c7.6,1.7,14.7,4.3,21.1,7.8c6.5,3.5,11.9,7.9,16.2,13.2c4.3,5.3,6.4,11.7,6.4,18.9c0,4.9-0.9,9.2-2.8,13.1
		c-1.9,3.9-4.3,7.2-7.3,10c-3,2.8-6.4,4.9-10.3,6.4c-3.9,1.5-7.8,2.3-11.7,2.3c-0.6,0-1.3,0-1.9,0
		C115.9,394.7,115.2,394.6,114.4,394.4z M130.9,454c0-5.8-1.1-10.9-3.4-15.2c-2.3-4.3-5.3-8.1-9.1-11.3c-3.8-3.2-8.2-6-13.1-8.4
		c-4.9-2.3-10-4.6-15.2-6.7c-5.7-2.3-10.7-4.4-15.2-6.3c-4.5-1.9-8.2-4.1-11.3-6.4c-3.1-2.3-5.4-4.9-6.9-7.8
		c-1.5-2.8-2.3-6.4-2.3-10.6c0-6.8,2.4-12.5,7.2-17.2c4.8-4.7,12-7,21.7-7c5.7,0,11,0.9,16,2.7c5,1.8,10.1,4.3,15.3,7.5
		c1.3,0.8,2.6,1.2,3.9,1.2c1.6,0,3-0.5,4.1-1.6c1.1-1.1,1.7-2.4,1.7-4c0-2.1-1.4-4.2-4.3-6.2c-2.8-2-6.2-3.8-10.2-5.2
		c-4-1.5-8.2-2.6-12.6-3.5c-4.5-0.9-8.4-1.3-11.8-1.3c-6.2,0-11.8,0.8-17,2.4c-5.2,1.6-9.6,4-13.4,7c-3.7,3.1-6.6,6.9-8.7,11.4
		c-2.1,4.5-3.2,9.6-3.2,15.3c0,7.5,1.9,13.6,5.7,18.3c3.8,4.8,8.5,8.8,14.2,12c5.7,3.2,11.8,6.1,18.5,8.5c6.6,2.4,12.8,5.1,18.5,8
		c5.7,2.9,10.4,6.4,14.2,10.3c3.8,4,5.7,9.1,5.7,15.4c0,8.7-3.1,15.3-9.2,19.8c-6.2,4.5-14.3,6.7-24.3,6.7c-6.6,0-12.8-1.1-18.3-3.3
		s-10.9-5.3-15.9-9.4c-0.6-0.3-1.3-0.6-1.9-1c-0.6-0.3-1.3-0.5-1.9-0.5c-1.6,0-3,0.6-4.3,1.8s-1.8,2.6-1.8,4.3
		c0,1.6,0.6,2.8,1.7,3.4c5.2,4.2,11.3,7.7,18.3,10.6c7,2.8,14.8,4.3,23.2,4.3c14.7,0,26-3.4,33.8-10.3
		C127,474.9,130.9,465.6,130.9,454z"/>
	<path class="st0" d="M162.5,518.3c-4.4,0-8.5-0.8-12.3-2.4c-3.8-1.6-7.2-3.9-10.1-6.8c-2.9-2.9-5.2-6.3-6.8-10.1
		c-1.6-3.8-2.4-7.9-2.4-12.3V354.4c0-4.2,0.8-8.2,2.4-12c1.6-3.8,3.8-7.2,6.6-10.1c2.8-2.9,6.1-5.2,10-6.9s8.1-2.6,12.6-2.6
		c4.4,0,8.5,0.8,12.3,2.4c3.8,1.6,7.2,3.9,10.1,6.8c2.9,2.9,5.2,6.3,6.8,10.1c1.6,3.8,2.4,7.9,2.4,12.3v132.4
		c0,4.5-0.9,8.7-2.6,12.6s-4,7.2-6.9,10c-2.9,2.8-6.3,4.9-10.1,6.6C170.7,517.5,166.7,518.3,162.5,518.3z M167.8,486.8V354.4
		c0-1.6-0.5-2.9-1.6-3.9c-1.1-1-2.3-1.5-3.8-1.5s-2.7,0.5-3.8,1.5c-1.1,1-1.6,2.3-1.6,3.9v132.4c0,1.5,0.5,2.7,1.6,3.8
		c1.1,1.1,2.3,1.6,3.8,1.6s2.7-0.5,3.8-1.6C167.3,489.5,167.8,488.2,167.8,486.8z"/>
	<path class="st0" d="M303.6,510.8c-11.3,5-24.1,7.5-38.4,7.5c-13.6,0-26.3-2.3-38.1-7c-11.8-4.7-22.1-11.3-31-19.9
		c-8.8-8.6-15.8-18.9-20.8-31.1c-5-12.1-7.5-25.8-7.5-40.8c0-14.1,2.3-27.2,6.8-39.2c4.5-12.1,11.1-22.5,19.6-31.3
		c8.5-8.8,18.7-15.7,30.6-20.8c11.9-5,25.3-7.5,40.2-7.5c8.4,0,17.4,1.1,27,3.4c9.6,2.3,18.4,5.6,26.5,10.1
		c8.1,4.5,14.8,9.9,20.2,16.3c5.3,6.4,8,13.7,8,22c0,6.8-1.9,12.9-5.6,18.2c-3.7,5.3-8.5,9.2-14.3,11.4c3.9,0.5,7.5,1.6,10.8,3.4
		c3.3,1.8,6.2,4.1,8.6,6.9c2.4,2.8,4.3,6,5.7,9.6c1.4,3.6,2.1,7.3,2.1,11.2v53c0,4.4-0.8,8.5-2.4,12.3c-1.6,3.8-3.8,7.1-6.7,10
		c-2.8,2.8-6.2,5.1-10,6.7c-3.8,1.6-7.9,2.4-12.3,2.4C315.6,517.4,309.3,515.2,303.6,510.8z M265,346.8c-11,0-20.9,1.7-29.6,5.2
		c-8.7,3.5-16.2,8.4-22.2,14.8c-6.1,6.4-10.8,14.1-14.1,23c-3.3,8.9-5,18.8-5,29.6c0,11.3,1.8,21.5,5.5,30.5
		c3.6,9,8.7,16.6,15.1,22.8c6.4,6.2,13.9,11,22.6,14.3c8.7,3.3,18,5,28.1,5c7.6,0,14.4-0.9,20.3-2.6c5.9-1.7,11.1-3.8,15.4-6.4
		c4.4-2.6,7.9-5.5,10.6-8.7c2.7-3.2,4.7-6.3,6-9.2V486c0,1.3,0.5,2.5,1.5,3.5c1,1.1,2.2,1.6,3.6,1.6s2.7-0.5,3.6-1.6
		c1-1.1,1.5-2.2,1.5-3.5v-53c0-1.3-0.5-2.5-1.5-3.5c-1-1.1-2.2-1.6-3.6-1.6h-40.8c-1.5,0-2.7,0.5-3.6,1.6c-1,1.1-1.5,2.2-1.5,3.5
		c0,1.3,0.5,2.5,1.5,3.5c1,1.1,2.2,1.6,3.6,1.6h35.7c-0.2,7.1-1.8,13.4-4.9,18.8c-3.1,5.4-7.1,10-12,13.7
		c-4.9,3.7-10.5,6.5-16.8,8.4c-6.2,1.9-12.7,2.8-19.3,2.8c-8.4,0-16.3-1.5-23.6-4.6c-7.3-3.1-13.6-7.4-19.1-12.9
		c-5.4-5.5-9.7-12.1-12.8-19.9c-3.1-7.8-4.6-16.3-4.6-25.5c0-8.7,1.4-16.9,4.1-24.4c2.8-7.5,6.7-14.1,11.9-19.7
		c5.2-5.6,11.5-10,18.8-13.1c7.4-3.2,15.7-4.7,25.1-4.7c11.3,0,20.9,1.9,28.8,5.8c7.9,3.9,13.7,8.4,17.6,13.6
		c1.1,1.1,2.4,1.7,3.9,1.7c1.6,0,3-0.6,4-1.7c1.1-1.1,1.6-2.5,1.6-4.1c0-1.3-0.3-2.3-1-3.2c-4.7-6.5-11.7-11.8-21.1-16
		C288.9,348.9,277.8,346.8,265,346.8z"/>
</g>
<g>
	<path class="st1" d="M475.2,376.6c0.6,1.9,0.8,3.6,0.8,5.1c0,2.9-0.9,5.9-2.7,9.2c-1.8,3.3-4.4,6.3-7.7,9.1
		c-3.3,2.8-7.4,5.1-12.1,6.9c-4.7,1.9-9.9,2.8-15.7,2.8c-6.8,0-12.8-1.2-18.1-3.5c-5.3-2.4-9.8-5.6-13.5-9.6c-3.7-4-6.5-8.7-8.4-14
		c-1.9-5.3-2.9-10.9-2.9-16.7c0-6.7,1.2-12.7,3.5-18.1c2.4-5.4,5.5-10,9.4-13.8c3.9-3.8,8.5-6.7,13.7-8.8c5.2-2.1,10.8-3.1,16.6-3.1
		c6.5,0,12.3,1.2,17.5,3.6c5.2,2.4,9.6,5.5,13.3,9.4c3.7,3.8,6.5,8.1,8.5,12.8c2,4.7,3,9.3,3,13.9
		C480.5,367.9,478.7,372.8,475.2,376.6z M437.6,389.1c-4.2,0-7.6-0.8-10.3-2.4c-2.7-1.6-4.9-3.5-6.5-5.7c-1.6-2.2-2.8-4.5-3.4-6.9
		c-0.6-2.4-1-4.4-1.1-6h43c2.1,0,3.7-0.5,4.7-1.5c1-1,1.5-2.6,1.5-4.9c0-2.6-0.6-5.3-1.9-8.3c-1.3-2.9-3.1-5.6-5.4-8.1
		c-2.4-2.5-5.2-4.5-8.5-6c-3.3-1.6-7.1-2.4-11.4-2.4c-3.9,0-7.5,0.7-11,2c-3.4,1.3-6.4,3.3-9,5.8c-2.5,2.5-4.6,5.5-6.1,9.1
		c-1.5,3.6-2.3,7.6-2.3,12c0,4.1,0.6,7.9,1.9,11.4c1.2,3.5,3.1,6.6,5.5,9.2c2.4,2.6,5.3,4.6,8.8,6.1c3.5,1.5,7.4,2.2,11.7,2.2
		c3,0,5.6-0.3,8-1c2.4-0.6,4.5-1.5,6.4-2.6c1.9-1.1,3.5-2.3,4.9-3.7c1.3-1.4,2.5-2.8,3.5-4.2c0.3-0.6,0.4-1.1,0.4-1.7
		c0-0.7-0.3-1.4-0.8-2.1c-0.5-0.6-1.3-1-2.3-1c-0.6,0-1.2,0.2-1.5,0.5c-0.4,0.3-0.8,0.8-1.2,1.3c-0.7,1.1-1.6,2.2-2.7,3.2
		c-1.1,1-2.3,1.9-3.7,2.7c-1.4,0.8-3,1.4-4.9,1.9C442.1,388.9,440,389.1,437.6,389.1z M438,342.9c4.2,0,7.6,0.7,10.4,2.2
		c2.8,1.5,5,3.3,6.7,5.3c1.7,2.1,2.8,4.2,3.5,6.5c0.7,2.2,1.1,4.1,1.2,5.7h-43.6c0.1-1.7,0.5-3.6,1.2-5.9c0.7-2.3,1.9-4.4,3.6-6.5
		c1.7-2,3.9-3.8,6.7-5.2C430.5,343.6,433.9,342.9,438,342.9z"/>
	<path class="st1" d="M505.9,362.6c0-0.9-0.2-1.6-0.7-2c-0.5-0.4-0.9-0.6-1.4-0.6c-0.6,0-1.1,0.2-1.5,0.6c-0.5,0.4-0.7,1.1-0.7,2
		v29.2c0,2.4-0.5,4.7-1.4,6.9c-0.9,2.2-2.2,4.1-3.7,5.8c-1.6,1.7-3.5,3-5.7,4c-2.2,1-4.6,1.5-7.2,1.5c-2.4,0-4.7-0.5-6.9-1.4
		c-2.2-0.9-4.1-2.2-5.8-3.7c-1.7-1.6-3-3.5-4-5.7c-1-2.2-1.5-4.6-1.5-7.2v-50.5c0-2.5,0.5-4.8,1.4-7c0.9-2.2,2.2-4.1,3.8-5.7
		c1.6-1.6,3.5-2.9,5.7-3.8c2.2-0.9,4.5-1.4,7-1.4c3.5,0,6.7,0.9,9.4,2.6c2.4-1,5-1.8,7.8-2.4c2.8-0.6,5.9-0.9,9.4-0.9
		c6.6,0,11.9,1.2,16.1,3.5c4.2,2.3,7.4,5.2,9.8,8.5c2.4,3.4,4,7,4.8,10.8c0.8,3.8,1.2,7.3,1.2,10.5v35.8c0,2.5-0.5,4.8-1.4,7
		c-0.9,2.2-2.2,4.1-3.9,5.8c-1.7,1.7-3.6,3-5.8,3.9c-2.2,0.9-4.5,1.4-7,1.4c-2.7,0-5.1-0.5-7.4-1.5c-2.2-1-4.1-2.4-5.7-4
		c-1.6-1.7-2.8-3.6-3.7-5.8c-0.9-2.2-1.3-4.4-1.3-6.7V362.6z M486.6,391.8v-34.3c0.9-1.3,2.1-2.8,3.5-4.4c1.4-1.6,3-3.1,4.9-4.6
		c1.9-1.4,3.9-2.6,6.2-3.6c2.3-1,4.9-1.5,7.6-1.5c2.9,0,5.1,0.5,6.7,1.5c1.6,1,2.8,2.2,3.6,3.5c0.8,1.4,1.3,2.9,1.5,4.5
		c0.2,1.6,0.3,3.1,0.3,4.4v34.4c0,0.8,0.3,1.6,0.9,2.2c0.6,0.6,1.3,0.9,2.2,0.9s1.5-0.3,2.2-0.9c0.6-0.6,0.9-1.3,0.9-2.2V356
		c0-2.2-0.2-4.4-0.7-6.7c-0.5-2.2-1.3-4.2-2.6-5.9c-1.3-1.7-3-3.1-5.2-4.2c-2.2-1.1-5-1.6-8.5-1.6c-3,0-5.6,0.3-8,1
		c-2.4,0.7-4.5,1.6-6.4,2.7c-1.9,1.1-3.6,2.3-5.1,3.6c-1.5,1.3-2.8,2.5-4,3.7l-0.3-7.6c-0.1-0.7-0.4-1.4-1-1.9
		c-0.6-0.6-1.2-0.8-1.9-0.8c-0.8,0-1.5,0.3-2.1,0.8c-0.6,0.6-0.8,1.3-0.8,2.1v50.5c0,0.8,0.3,1.6,0.9,2.2c0.6,0.6,1.3,0.9,2.2,0.9
		s1.5-0.3,2.2-0.9C486.3,393.3,486.6,392.6,486.6,391.8z"/>
</g>
<g>
	<g>
		<path class="st1" d="M395.7,498.1v-74.4c0-2.4,0.5-4.7,1.4-6.9c0.9-2.2,2.2-4.1,3.7-5.8c1.6-1.7,3.5-3,5.7-4
			c2.2-1,4.6-1.5,7.2-1.5h14.2c5.7,0,11.2,0.6,16.5,1.9c5.2,1.2,9.9,3.2,13.9,6c4,2.7,7.2,6.3,9.6,10.6c2.4,4.4,3.5,9.6,3.5,15.7
			c0,3.3-0.3,6.3-1,9c-0.6,2.7-1.5,5.1-2.6,7.2c2.4,2.7,4.4,5.9,5.9,9.8c1.5,3.8,2.3,8.4,2.3,13.5c0,6.6-1.2,12.2-3.7,16.8
			c-2.5,4.6-5.6,8.4-9.4,11.4c-3.8,3-8,5.1-12.5,6.5c-4.5,1.4-8.9,2.1-13,2.1h-23.6c-2.5,0-4.8-0.5-7-1.4c-2.2-0.9-4.1-2.2-5.8-3.9
			c-1.7-1.7-3-3.6-3.9-5.8C396.1,502.9,395.7,500.6,395.7,498.1z M413.7,501.2h23.6c2.9,0,5.7-0.4,8.5-1.3c2.8-0.9,5.3-2.2,7.6-4
			c2.2-1.8,4-4,5.4-6.7c1.4-2.7,2.1-6,2.1-9.8c0-3.4-0.6-6.4-1.7-8.8c-1.1-2.5-2.5-4.5-4.3-6.1c-1.7-1.6-3.6-2.9-5.7-3.8
			c-2-0.9-4-1.6-5.7-2.1c1.4-0.6,2.8-1.5,4.3-2.4c1.5-1,2.9-2.2,4.1-3.7c1.3-1.5,2.3-3.2,3.1-5.3c0.8-2,1.2-4.5,1.2-7.4
			c0-4.2-0.8-7.5-2.5-10c-1.7-2.5-3.9-4.4-6.6-5.8c-2.7-1.4-5.8-2.3-9.2-2.7c-3.4-0.4-6.8-0.6-10.2-0.6h-14.2
			c-0.8,0-1.6,0.3-2.2,0.8c-0.6,0.6-0.9,1.3-0.9,2.2v74.4c0,0.8,0.3,1.6,0.9,2.2C412.2,500.9,412.9,501.2,413.7,501.2z M450.2,440.6
			c0,3-0.6,5.4-1.9,7.4c-1.2,1.9-2.9,3.5-5,4.7c-2.1,1.2-4.4,2-7.1,2.4c-2.6,0.5-5.4,0.7-8.2,0.7h-11.3v-29.4h10.6
			c2.3,0,4.8,0.1,7.4,0.3c2.6,0.2,5.1,0.7,7.4,1.7c2.3,0.9,4.2,2.4,5.7,4.3S450.2,437.2,450.2,440.6z M455.2,478.9
			c0,3.1-0.6,5.6-1.7,7.7c-1.2,2.1-2.7,3.8-4.7,5.1c-1.9,1.3-4.2,2.2-6.7,2.8c-2.5,0.6-5,0.9-7.6,0.9h-17.8v-34h14.7
			c2.4,0,5,0.2,7.8,0.7c2.8,0.5,5.3,1.3,7.7,2.6c2.4,1.3,4.3,3.1,5.9,5.3C454.4,472.4,455.2,475.3,455.2,478.9z"/>
		<path class="st1" d="M460.9,431.9v-7.5c0-2.7,0.5-5.1,1.5-7.4c1-2.2,2.4-4.1,4-5.7c1.7-1.6,3.6-2.8,5.8-3.7
			c2.2-0.9,4.5-1.3,6.9-1.3c2.5,0,4.8,0.5,7,1.4c2.2,0.9,4.1,2.2,5.8,3.9s3,3.6,3.9,5.8c0.9,2.2,1.4,4.5,1.4,7v7.5
			c0,3.1-0.7,6.1-2.2,8.7c1.4,2.5,2.1,5.3,2.1,8.3v50.4c0,2.5-0.5,4.8-1.5,7c-1,2.2-2.3,4.1-3.9,5.8c-1.6,1.7-3.5,3-5.8,3.9
			c-2.2,0.9-4.6,1.4-7.1,1.4c-2.6,0-5-0.5-7.1-1.5c-2.2-1-4.1-2.3-5.7-4c-1.6-1.7-2.9-3.6-3.7-5.8c-0.9-2.2-1.3-4.5-1.3-6.9V449
			c0-3,0.7-5.8,2.1-8.5C461.6,437.8,460.9,434.9,460.9,431.9z M478.9,434.9c1,0,1.8-0.3,2.4-0.9c0.6-0.6,0.9-1.3,0.9-2.2v-7.5
			c0-0.8-0.3-1.5-0.8-2.2c-0.6-0.6-1.3-0.9-2.2-0.9c-1,0-1.8,0.3-2.4,0.9c-0.6,0.6-0.9,1.3-0.9,2.2v7.5c0,0.8,0.3,1.6,0.9,2.2
			C477.4,434.6,478.1,434.9,478.9,434.9z M482.1,499.3V449c0-0.8-0.3-1.5-0.9-2.2c-0.6-0.6-1.3-0.9-2.2-0.9c-0.9,0-1.7,0.3-2.2,0.9
			c-0.6,0.6-0.8,1.3-0.8,2.2v50.4c0,0.8,0.3,1.6,0.8,2.2c0.6,0.6,1.2,0.9,2.1,0.9c0.9,0,1.7-0.3,2.3-0.9
			C481.8,500.9,482.1,500.2,482.1,499.3z"/>
		<path class="st1" d="M554.7,473.5c2.6,1.6,4.7,3.7,6.4,6.3c1.7,2.6,2.5,5.7,2.5,9.1c0,4.4-1.3,8.4-3.9,11.9
			c-2.6,3.5-5.8,6.5-9.7,9c-3.9,2.5-8.1,4.3-12.6,5.6c-4.5,1.3-8.7,1.9-12.6,1.9c-6.1,0-11.8-1.1-17-3.2c-5.2-2.1-9.7-5.1-13.5-9
			c-3.8-3.9-6.8-8.5-8.9-13.9c-2.1-5.4-3.2-11.3-3.2-17.8c0-6.4,1.1-12.3,3.2-17.6c2.1-5.4,5.1-10,8.9-13.9
			c3.8-3.9,8.3-6.9,13.5-9.1c5.2-2.2,10.9-3.3,17.1-3.3c4.3,0,8.8,0.7,13.4,2.2c4.6,1.4,8.7,3.4,12.5,6c3.7,2.5,6.8,5.6,9.2,9
			c2.4,3.5,3.6,7.2,3.6,11.3c0,3.2-0.8,6.2-2.4,9C559.6,469.8,557.4,472,554.7,473.5z M542.8,487.7c-1.9,2.9-4.3,5.1-7.2,6.6
			c-3,1.5-6.5,2.3-10.7,2.3c-6.8,0-12-2-15.8-6c-3.8-4-5.7-9.7-5.7-17c0-7.2,1.9-12.9,5.7-17c3.8-4.1,9.1-6.2,15.8-6.2
			c8.2,0,14.3,3,18.2,9c0.8,1.1,1.8,1.7,2.8,1.7c0.7,0,1.4-0.3,1.9-0.9c0.6-0.6,0.8-1.3,0.8-2c0-0.6-0.1-1-0.3-1.2
			c-2.4-3.9-5.6-6.9-9.7-9c-4.1-2.1-8.7-3.2-13.7-3.2c-4.1,0-7.8,0.7-11.2,2.1c-3.4,1.4-6.3,3.3-8.7,5.8c-2.4,2.5-4.3,5.5-5.7,9.1
			c-1.4,3.6-2.1,7.5-2.1,11.9c0,4.4,0.7,8.4,2.1,12c1.4,3.6,3.3,6.6,5.8,9.1c2.5,2.5,5.4,4.4,8.7,5.8c3.4,1.3,7.1,2,11,2
			c5.1,0,9.6-1.1,13.6-3.2c4-2.1,7.2-5.1,9.7-9c0.3-0.4,0.4-0.8,0.4-1.2c0-0.7-0.3-1.4-0.9-2c-0.6-0.6-1.3-0.9-2.2-0.9
			C544.6,486,543.6,486.6,542.8,487.7z"/>
		<path class="st1" d="M548.6,431.9v-7.5c0-2.7,0.5-5.1,1.5-7.4c1-2.2,2.4-4.1,4-5.7c1.7-1.6,3.6-2.8,5.8-3.7
			c2.2-0.9,4.5-1.3,6.9-1.3c2.5,0,4.8,0.5,7,1.4c2.2,0.9,4.1,2.2,5.8,3.9s3,3.6,3.9,5.8c0.9,2.2,1.4,4.5,1.4,7v7.5
			c0,3.1-0.7,6.1-2.2,8.7c1.4,2.5,2.1,5.3,2.1,8.3v50.4c0,2.5-0.5,4.8-1.5,7c-1,2.2-2.3,4.1-3.9,5.8c-1.6,1.7-3.5,3-5.8,3.9
			c-2.2,0.9-4.6,1.4-7.1,1.4c-2.6,0-5-0.5-7.1-1.5c-2.2-1-4.1-2.3-5.7-4c-1.6-1.7-2.9-3.6-3.7-5.8c-0.9-2.2-1.3-4.5-1.3-6.9V449
			c0-3,0.7-5.8,2.1-8.5C549.4,437.8,548.6,434.9,548.6,431.9z M566.7,434.9c1,0,1.8-0.3,2.4-0.9c0.6-0.6,0.9-1.3,0.9-2.2v-7.5
			c0-0.8-0.3-1.5-0.8-2.2c-0.6-0.6-1.3-0.9-2.2-0.9c-1,0-1.8,0.3-2.4,0.9c-0.6,0.6-0.9,1.3-0.9,2.2v7.5c0,0.8,0.3,1.6,0.9,2.2
			C565.1,434.6,565.8,434.9,566.7,434.9z M569.9,499.3V449c0-0.8-0.3-1.5-0.9-2.2c-0.6-0.6-1.3-0.9-2.2-0.9c-0.9,0-1.7,0.3-2.2,0.9
			c-0.6,0.6-0.8,1.3-0.8,2.2v50.4c0,0.8,0.3,1.6,0.8,2.2c0.6,0.6,1.2,0.9,2.1,0.9c0.9,0,1.7-0.3,2.3-0.9
			C569.6,500.9,569.9,500.2,569.9,499.3z"/>
	</g>
</g>
<line class="st2" x1="374.8" y1="327.7" x2="374.8" y2="511.6"/>
<path class="st3" d="M408.5,123.2c-0.2,0-0.5,0-0.7,0.1c-0.2,0-0.5-0.1-0.7-0.1c-6.7,0-13.3,0.8-19.7,2.3l-28.8-73.1
	c-1.1-2.8-3.8-4.7-6.8-4.7l-36.4-0.8c-4.1-0.2-7.5,3.2-7.6,7.3s3.2,7.5,7.3,7.6l31.4,0.7l26.7,67.8c-9.2,4.1-17.7,9.9-25.1,17.2
	l-47.9,47.3L247.1,82.3l12.1,0.1c0,0,0.1,0,0.1,0c4.1,0,7.4-3.3,7.5-7.4c0-4.1-3.3-7.5-7.4-7.5L213.2,67c0,0-0.1,0-0.1,0
	c-4.1,0-7.4,3.3-7.5,7.4c0,4.1,3.3,7.5,7.4,7.5l17.5,0.2l14.9,31.5l-67.4,91.5c-1.7,2.3-1.9,5.3-0.6,7.8c1.3,2.5,3.8,4.1,6.7,4.1
	h93.7L239,255.3c-12.7,12.1-29.4,18.8-46.9,18.8c-37.5,0-68-30.5-68-68c0-31.5,22.3-59.4,52.9-66.3c4-0.9,6.5-4.9,5.6-8.9
	c-0.9-4-4.9-6.5-8.9-5.6c-38,8.6-64.6,41.9-64.6,80.9c0,45.7,37.2,82.9,82.9,82.9c21.4,0,41.8-8.1,57.3-22.9c0,0,0,0,0,0
	c0,0,0,0,0,0l46.4-45.8l12.6,26.7l-5.9,2c-3.9,1.3-6,5.6-4.6,9.5c1.1,3.1,4,5,7.1,5c0.8,0,1.6-0.1,2.4-0.4l12.9-4.4
	c0.6-0.1,1.1-0.3,1.7-0.6c0,0,0.1,0,0.1-0.1l12.8-4.4c3.9-1.3,6-5.6,4.6-9.5c-1.3-3.9-5.6-6-9.5-4.6l-7.4,2.5L307.1,209l51.6-51
	c5.9-5.9,12.7-10.5,20.1-13.9l27.8,70.6c1.2,2.9,4,4.7,6.9,4.7c0.9,0,1.8-0.2,2.7-0.5c3.8-1.5,5.7-5.8,4.2-9.7l-27.5-69.8
	c4.6-1,9.4-1.5,14.2-1.5c0.2,0,0.5,0,0.7-0.1c0.2,0,0.5,0.1,0.7,0.1c37.5,0,68,30.5,68,68c0,37.5-30.5,68-68,68
	c-18.7,0-36.1-7.4-49-20.9c-2.9-3-7.6-3.1-10.5-0.2c-3,2.9-3.1,7.6-0.2,10.5c15.8,16.4,37,25.4,59.8,25.4
	c45.7,0,82.9-37.2,82.9-82.9C491.4,160.4,454.2,123.2,408.5,123.2z M252.7,128.9l34.6,73.2h-88.5L252.7,128.9z"/>
<g>
</g>
<g>
</g>
<g>
</g>
<g>
</g>
<g>
</g>
<g>
</g>
<g>
</g>
<g>
</g>
<g>
</g>
<g>
</g>
<g>
</g>
<g>
</g>
<g>
</g>
<g>
</g>
<g>
</g>
</svg>
